<svg xmlns="http://www.w3.org/2000/svg" viewBox="0 0 512 512" width="100%" height="100%">
  <rect width="512" height="512" rx="100" fill="#f4efe2"/>
  
  <g transform="translate(30, 25)">
    <circle cx="120" cy="120" r="11" fill="#0d733e" />
    <circle cx="112" cy="150" r="13" fill="#0d733e" />
    <circle cx="110" cy="182" r="15" fill="#0d733e" />
    <circle cx="118" cy="216" r="17" fill="#0d733e" />
    <circle cx="134" cy="250" r="19" fill="#0d733e" />
    <circle cx="156" cy="282" r="21" fill="#0d733e" />
    <circle cx="184" cy="310" r="19" fill="#0d733e" />
    <circle cx="212" cy="334" r="16" fill="#0d733e" />
    <circle cx="234" cy="356" r="13" fill="#0d733e" />
    <circle cx="246" cy="378" r="10" fill="#0d733e" />
    <circle cx="250" cy="398" r="8" fill="#0d733e" />

    <path d="M190,70 C170,160 210,230 270,270 C320,310 320,380 270,440 C290,400 300,340 250,290 C200,240 180,150 205,70 Z" fill="#0d733e" />
    
    <circle cx="255" cy="155" r="38" fill="#0d733e" />
  </g>
</svg>
